<svg id="_x31__x2C_5_px" enable-background="new 0 0 24 24" viewBox="0 0 24 24" xmlns="http://www.w3.org/2000/svg" fill="#8BC34A"><path d="m18.25 24h-12.5c-.414 0-.75-.336-.75-.75v-2c0-1.517 1.233-2.75 2.75-2.75h8.5c1.517 0 2.75 1.233 2.75 2.75v2c0 .414-.336.75-.75.75zm-11.75-1.5h11v-1.25c0-.689-.561-1.25-1.25-1.25h-8.5c-.689 0-1.25.561-1.25 1.25z"/><path d="m4.09 11.34c-.169 0-.34-.057-.479-.173-.318-.265-.362-.738-.098-1.056l5.62-6.76c.264-.318.738-.362 1.057-.097.318.265.362.738.098 1.056l-5.62 6.76c-.149.178-.363.27-.578.27z"/><path d="m8.75 20c-.206 0-.412-.085-.56-.251l-4.4-4.94c-.276-.31-.249-.784.061-1.059.309-.276.783-.249 1.059.061l4.4 4.94c.276.31.249.784-.061 1.059-.144.128-.321.19-.499.19z"/><path d="m3.5 15c-1.379 0-2.5-1.122-2.5-2.5s1.121-2.5 2.5-2.5 2.5 1.122 2.5 2.5-1.121 2.5-2.5 2.5zm0-3.5c-.552 0-1 .449-1 1s.448 1 1 1 1-.449 1-1-.448-1-1-1z"/><path d="m12.037 12.657c-.192 0-.384-.073-.53-.22-1.193-1.193-1.851-2.778-1.851-4.465s.657-3.272 1.851-4.465c2.461-2.462 6.468-2.462 8.931 0 .141.141.22.331.22.53s-.079.39-.22.53l-7.87 7.87c-.147.146-.339.22-.531.22zm3.935-9.498c-1.233 0-2.466.469-3.404 1.408-.909.91-1.411 2.119-1.411 3.405 0 1.033.323 2.016.922 2.833l6.728-6.727c-.843-.613-1.839-.919-2.835-.919z"/><path d="m11.12 5.99c-.191 0-.383-.073-.529-.218l-1.91-1.9c-.868-.883-.868-2.311-.006-3.188.887-.872 2.313-.871 3.191-.009l1.905 1.916c.293.293.291.769-.002 1.061s-.768.291-1.061-.003l-1.9-1.91c-.292-.287-.776-.287-1.072.006-.284.288-.284.772.009 1.069l1.904 1.895c.293.291.295.767.002 1.06-.146.148-.338.221-.531.221z"/></svg>