<svg xmlns="http://www.w3.org/2000/svg" xmlns:xlink="http://www.w3.org/1999/xlink" version="1.1" viewBox="0 0 48 48"><defs><radialGradient id="serviceBusiness_svg__b" cx="100%" cy="0%" r="141.421%" fx="100%" fy="0%"><stop offset="0%" stop-color="#FFF" stop-opacity=".382"/><stop offset="100%" stop-color="#FFF" stop-opacity="0"/></radialGradient><path id="serviceBusiness_svg__a" d="M14.77 0h18.46C41.389 0 48 6.612 48 14.77v18.46C48 41.389 41.388 48 33.23 48H14.77C6.611 48 0 41.388 0 33.23V14.77C0 6.611 6.612 0 14.77 0z"/></defs><g fill="none" fill-rule="evenodd" stroke="none" stroke-width="1"><g><use fill="#15B6D2" xlink:href="#serviceBusiness_svg__a"/><use fill="url(#serviceBusiness_svg__b)" xlink:href="#serviceBusiness_svg__a"/></g><path fill="#FFF" fill-rule="nonzero" d="M22 14h4a2 2 0 0 1 2 2v2h4a2 2 0 0 1 2 2v11a2 2 0 0 1-2 2H16a2 2 0 0 1-2-2V20c0-1.11.89-2 2-2h4v-2c0-1.11.89-2 2-2zm4 4v-2h-4v2h4z"/></g></svg>