<?xml version="1.0"?>
<svg xmlns="http://www.w3.org/2000/svg" viewBox="0 0 512 512" data-name="Layer 1" class=""><g><path d="m499.767 406.428c-11.61-38.276-39.5-57.947-54.085-65.92a12.747 12.747 0 0 0 1.083-5.141v-8.14a12.811 12.811 0 0 0 -5.336-10.392 135.325 135.325 0 0 1 12.871-20.7c5.868-7.775 11.2-11.539 16.843-15.525 2.189-1.544 4.45-3.141 6.732-4.972a10.987 10.987 0 0 0 3.808-12.11c-1.641-4.869-6.362-7.744-12.024-7.32s-12.677-3.279-18.31-6.253a60.971 60.971 0 0 0 -7.084-3.395c-12.182-4.434-19.911 2.937-23.625 6.48-1.277 1.219-5.619 3.374-7.777 4.135-.281.1-.569.19-.864.268-6.1 1.612-9.846 1.5-15.91-3.417-11.863-9.625-21.917-5.507-25.691-3.292-3.149 1.851-4.788 5.122-6.373 8.285a42.623 42.623 0 0 1 -2.295 4.188c-.865 1.323-1.1 1.358-1.675 1.442-1.56.231-2.035.144-4.465-1.463l-.913-.612a76.644 76.644 0 0 0 -12.27-6.87 5.9 5.9 0 0 0 -.944-1.422 118.475 118.475 0 0 0 -86.331-38.125h-.127-127.95c-65.182 0-118.212 53.13-118.212 118.436v99.153a6 6 0 0 0 6 6h263.04a76.18 76.18 0 0 0 13.756 33.043c15.541 21.422 41.144 34.211 68.486 34.211h59.856c26.709 0 51.987-12.316 67.618-32.946a74.529 74.529 0 0 0 12.753-65.626q-.28-1-.585-2zm-150.192-70.228a5.993 5.993 0 0 0 -2.523-.206.818.818 0 0 1 -.3-.624v-8.14a.83.83 0 0 1 .83-.829h86.352a.83.83 0 0 1 .83.829v8.14a.817.817 0 0 1 -.107.386 5.977 5.977 0 0 0 -2.546.444zm-.6-63c3.4 2.25 6.941 4.2 12.84 3.326a13.758 13.758 0 0 0 9.962-6.747 52.392 52.392 0 0 0 2.98-5.379 24.655 24.655 0 0 1 1.912-3.422c3.52-1.958 7.509-1.162 11.864 2.372 8.508 6.9 15.949 8.5 26.534 5.7.584-.154 1.186-.34 1.791-.553 1.667-.588 8.6-3.46 12.07-6.771 4.186-3.991 6.8-5.5 11.238-3.884a55.974 55.974 0 0 1 5.585 2.73c5.963 3.149 13.912 7.345 22.086 7.654-1.176.868-2.374 1.714-3.611 2.587-5.861 4.138-12.5 8.829-19.5 18.1a146.915 146.915 0 0 0 -15.468 25.487h-11.735l9.975-15.016a6 6 0 0 0 -10-6.639l-14.381 21.655h-3.6l-.491-29.477a6 6 0 0 0 -12 .2l.487 29.276h-7.355l-10.31-17.729a6 6 0 1 0 -10.373 6.032l6.8 11.7h-11.046a89.3 89.3 0 0 0 -14.643-26.519 92.3 92.3 0 0 0 -24.8-21.708c-.919-.562-1.77-1.6-1.464-2.544a1.615 1.615 0 0 1 .182-.395c.139-.043.335-.1.6-.168 3.166-.813 12.143-.524 15.009.482.839.294 1.7.664 2.451.989.383.164.733.315 1.04.441a70.193 70.193 0 0 1 14.363 7.553zm-161.375-.742h9.014l17.523 93.793-23.632 25.686-22.96-25.57zm18.87-44.3-8.6 32.3h-14.114l-8.6-32.3zm-185.627 106.434c0-58.689 47.647-106.436 106.212-106.436h35.688l9.632 36.193a10.67 10.67 0 0 0 3.5 5.593l-20.7 96.908a6 6 0 0 0 1.405 5.261l29.412 32.755a6 6 0 0 0 4.427 1.991h.037a6 6 0 0 0 4.416-1.937l30.134-32.755a6 6 0 0 0 1.482-5.165l-18.588-99.476a10.427 10.427 0 0 0 1.332-3.085l9.657-36.283h35.686a106.423 106.423 0 0 1 65.2 22.442 35.8 35.8 0 0 0 -7.648.841 13.381 13.381 0 0 0 -4.073 1.621 12.9 12.9 0 0 0 -5.151 6.878c-1.972 6.1.749 12.874 6.615 16.467a79.554 79.554 0 0 1 21.671 18.942 77.815 77.815 0 0 1 11.584 19.993 12.845 12.845 0 0 0 -8.025 11.887v8.14a12.755 12.755 0 0 0 1.546 6.1c-26.952 15.824-45.05 35.552-53.841 58.738-.611 1.614-1.191 3.257-1.721 4.882a75.046 75.046 0 0 0 -3.728 22.658h-256.161zm457.193 132.215c-13.377 17.654-35.079 28.193-58.055 28.193h-59.856c-23.51 0-45.482-10.938-58.773-29.259a62.822 62.822 0 0 1 -9.207-56.931c.473-1.449.989-2.913 1.534-4.351 12.59-33.208 43.877-50.294 55.144-56.262h85.112c.086 0 .169-.011.254-.013 8.384 3.8 41.805 21.21 54.1 61.733q.267.882.513 1.757a62.625 62.625 0 0 1 -10.766 55.133z" data-original="#000000" class="active-path" data-old_color="#000000" fill="#8BC34A"/><path d="m395.014 362.907c-33.4 0-60.57 25.47-60.57 56.775s27.172 56.775 60.57 56.775 60.57-25.469 60.57-56.775-27.171-56.775-60.57-56.775zm0 101.55c-26.782 0-48.57-20.086-48.57-44.775s21.788-44.775 48.57-44.775 48.57 20.086 48.57 44.775-21.784 44.775-48.57 44.775z" data-original="#000000" class="active-path" data-old_color="#000000" fill="#ff934d"/><path d="m411.99 395.953a19.389 19.389 0 0 0 -10.142-6.393v-1.218a6 6 0 0 0 -12 0v1.282a16.582 16.582 0 0 0 -7.03 4.051 18.638 18.638 0 0 0 -5.293 13.445c.12 7.9 6.222 14.521 14.833 16.111l2.24.415c.256.053.6.156.869.234.074.03.148.059.223.086l1 .364c.4.194.527.262.792.409l.536.3c.058.035.114.069.164.1 1.637.94 4.762 3.372 4.871 5.851.1 2.331-.654 3.373-1.233 3.954-1.579 1.586-4.739 2.317-7.062 2.229-2.281-.091-6.708-2.069-7.011-4.648a6 6 0 0 0 -11.918 1.405c.935 7.935 7.837 12.729 14.017 14.48v.709a6 6 0 0 0 12 0v-.893a19.462 19.462 0 0 0 8.477-4.815 16.763 16.763 0 0 0 4.718-12.951c-.4-9.025-8.431-14.32-10.9-15.738l-.34-.191-.514-.283c-.464-.256-.683-.377-1.377-.712a12.15 12.15 0 0 0 -1.135-.479l-.9-.327c-.369-.145-.746-.273-1.116-.378-.693-.2-1.368-.385-2-.5l-2.22-.412c-3.428-.633-4.99-2.713-5.017-4.5a6.742 6.742 0 0 1 1.682-4.679c1.068-1.043 2.8-1.532 5.157-1.437 5.986.23 7.512 4.364 7.757 5.19l-.03-.11 11.637-2.929a18.915 18.915 0 0 0 -3.735-7.022z" data-original="#000000" class="active-path" data-old_color="#000000" fill="#8BC34A"/><path d="m314.649 316.781a6 6 0 0 0 0-12h-45.177a6 6 0 0 0 0 12z" data-original="#000000" class="active-path" data-old_color="#000000" fill="#ff934d"/><path d="m190.817 5c-51.517 0-93.425 41.988-93.425 93.6s41.91 93.6 93.425 93.6 93.425-41.988 93.425-93.6-41.91-93.6-93.425-93.6zm0 175.2a81.6 81.6 0 1 1 81.425-81.6 81.6 81.6 0 0 1 -81.425 81.6z" data-original="#000000" class="active-path" data-old_color="#000000" fill="#8BC34A"/></g> </svg>
