<svg width="320" height="180" xmlns="http://www.w3.org/2000/svg">

 <g>
  <title>background</title>
  <rect fill="none" id="canvas_background" height="182" width="322" y="-1" x="-1"/>
 </g>
 <g>
  <title>Layer 1</title>
  <g stroke="null" id="svg_1">
   <g stroke="null" id="svg_2">
    <path stroke="null" id="svg_3" fill="#b9b9b9" d="m185.993393,142.440562c-0.80091,0 -1.62089,-0.100114 -2.431335,-0.314643l-73.717123,-19.741487c-5.053363,-1.392058 -8.066311,-6.62658 -6.740995,-11.679943l9.301048,-34.667976c0.343247,-1.272875 1.649494,-2.011811 2.917602,-1.687633c1.272875,0.33848 2.026112,1.649494 1.687633,2.917602l-9.296281,34.658442c-0.662658,2.526681 0.853351,5.158244 3.3848,5.859041l73.688519,19.731952c2.531449,0.667425 5.143942,-0.839049 5.801833,-3.356196l3.72328,-13.796634c0.343247,-1.272875 1.649494,-2.03088 2.922369,-1.682865c1.272875,0.343247 2.021345,1.654261 1.682865,2.922369l-3.718512,13.777565c-1.120321,4.242918 -4.981853,7.060406 -9.205702,7.060406z"/>
   </g>
   <g stroke="null" id="svg_4">
    <path stroke="null" id="svg_5" fill="#b9b9b9" d="m207.670413,113.836621l-76.277176,0c-5.258358,0 -9.534647,-4.276289 -9.534647,-9.534647l0,-57.207882c0,-5.258358 4.276289,-9.534647 9.534647,-9.534647l76.277176,0c5.258358,0 9.534647,4.276289 9.534647,9.534647l0,57.207882c0,5.258358 -4.276289,9.534647 -9.534647,9.534647zm-76.277176,-71.509852c-2.626795,0 -4.767323,2.140528 -4.767323,4.767323l0,57.207882c0,2.626795 2.140528,4.767323 4.767323,4.767323l76.277176,0c2.626795,0 4.767323,-2.140528 4.767323,-4.767323l0,-57.207882c0,-2.626795 -2.140528,-4.767323 -4.767323,-4.767323l-76.277176,0z"/>
   </g>
   <g stroke="null" id="svg_6">
    <path stroke="null" id="svg_7" fill="#b9b9b9" d="m145.695208,70.930709c-5.258358,0 -9.534647,-4.276289 -9.534647,-9.534647s4.276289,-9.534647 9.534647,-9.534647s9.534647,4.276289 9.534647,9.534647s-4.276289,9.534647 -9.534647,9.534647zm0,-14.30197c-2.626795,0 -4.767323,2.140528 -4.767323,4.767323s2.140528,4.767323 4.767323,4.767323s4.767323,-2.140528 4.767323,-4.767323s-2.140528,-4.767323 -4.767323,-4.767323z"/>
   </g>
   <g stroke="null" id="svg_8">
    <path stroke="null" id="svg_9" fill="#b9b9b9" d="m124.575965,108.735585c-0.610217,0 -1.220435,-0.233599 -1.687633,-0.696029c-0.929628,-0.929628 -0.929628,-2.44087 0,-3.370498l22.516069,-22.516069c2.698305,-2.698305 7.413188,-2.698305 10.111493,0l6.702857,6.702857l18.554423,-22.263401c1.349153,-1.616123 3.332359,-2.555285 5.444283,-2.574355l0.052441,0c2.088088,0 4.066527,0.905791 5.429981,2.49331l24.933102,29.090208c0.858118,0.996371 0.743702,2.502845 -0.257435,3.360963c-0.996371,0.858118 -2.498078,0.74847 -3.360963,-0.257435l-24.933102,-29.090208c-0.46243,-0.53394 -1.101252,-0.829514 -1.811583,-0.829514c-0.495802,-0.042906 -1.368222,0.300341 -1.830652,0.858118l-20.227754,24.270444c-0.429059,0.514871 -1.053578,0.824747 -1.725771,0.853351c-0.67696,0.047673 -1.320549,-0.219297 -1.792514,-0.696029l-8.547811,-8.547811c-0.901024,-0.896257 -2.469474,-0.896257 -3.370498,0l-22.516069,22.516069c-0.46243,0.46243 -1.072648,0.696029 -1.682865,0.696029z"/>
   </g>
  </g>
 </g>
</svg>