<svg xmlns="http://www.w3.org/2000/svg" xmlns:xlink="http://www.w3.org/1999/xlink" version="1.1" viewBox="0 0 48 48"><defs><radialGradient id="serviceQuittance_svg__b" cx="100%" cy="0%" r="141.421%" fx="100%" fy="0%"><stop offset="0%" stop-color="#FFF" stop-opacity=".382"/><stop offset="100%" stop-color="#FFF" stop-opacity="0"/></radialGradient><path id="serviceQuittance_svg__a" d="M14.77 0h18.46C41.389 0 48 6.612 48 14.77v18.46C48 41.389 41.388 48 33.23 48H14.77C6.611 48 0 41.388 0 33.23V14.77C0 6.611 6.612 0 14.77 0z"/></defs><g fill="none" fill-rule="evenodd" stroke="none" stroke-width="1"><g><use fill="#C556D6" xlink:href="#serviceQuittance_svg__a"/><use fill="url(#serviceQuittance_svg__b)" xlink:href="#serviceQuittance_svg__a"/></g><path fill="#FFF" d="M15 34l1.5-1.5L18 34l1.5-1.5L21 34l1.5-1.5L24 34l1.5-1.5L27 34l1.5-1.5L30 34l1.5-1.5L33 34V14l-1.5 1.5L30 14l-1.5 1.5L27 14l-1.5 1.5L24 14l-1.5 1.5L21 14l-1.5 1.5L18 14l-1.5 1.5L15 14v20zm15-13H18v-2h12v2zm0 4H18v-2h12v2zm0 4H18v-2h12v2z"/></g></svg>