<svg xmlns="http://www.w3.org/2000/svg" xmlns:xlink="http://www.w3.org/1999/xlink" version="1.1" viewBox="0 0 48 48"><defs><radialGradient id="serviceCredit_svg__b" cx="100%" cy="0%" r="141.421%" fx="100%" fy="0%"><stop offset="0%" stop-color="#FFF" stop-opacity=".382"/><stop offset="100%" stop-color="#FFF" stop-opacity="0"/></radialGradient><path id="serviceCredit_svg__a" d="M14.77 0h18.46C41.389 0 48 6.612 48 14.77v18.46C48 41.389 41.388 48 33.23 48H14.77C6.611 48 0 41.388 0 33.23V14.77C0 6.611 6.612 0 14.77 0z"/></defs><g fill="none" fill-rule="evenodd" stroke="none" stroke-width="1"><g><use fill="#FC0" xlink:href="#serviceCredit_svg__a"/><use fill="url(#serviceCredit_svg__b)" style="mix-blend-mode:lighten" xlink:href="#serviceCredit_svg__a"/></g><path fill="#FFF" d="M26.347 20.274l-.002.012c3.22 1.688 5.559 6.398 5.559 8.508 0 2.595.359 6.226-7.904 6.226s-7.904-3.112-7.904-6.226c0-2.5 2.28-6.866 5.438-8.491a4.776 4.776 0 0 1-.004-.03h4.817zm.325-1.21h-5.467a16.105 16.105 0 0 0-1.052-2.21c-.97-1.72-.19-2.769 1.29-2.707 1.482.062 1.29-1.127 2.496-1.127 1.205 0 1.013 1.189 2.494 1.127 1.481-.062 2.261.987 1.292 2.707-.5.887-.838 1.636-1.053 2.21zm-2.915 4.232c-.809 0-1.448.189-1.907.59-.495.4-.797 1.025-.893 1.861h1.267c.12-.919.628-1.378 1.533-1.378.47 0 .833.082 1.074.27.218.19.338.496.338.943 0 .354-.169.672-.507.931a.931.931 0 0 0-.157.106H20.33v.731h2.776c-.7.33-1.17.601-1.388.79a.211.211 0 0 0-.06.047h-1.328v.73h.797c-.121.26-.17.543-.17.849 0 .754.23 1.332.713 1.709.459.377 1.122.565 2.016.565.808 0 1.448-.2 1.907-.589.483-.412.784-1.037.881-1.862h-1.267c-.121.92-.628 1.379-1.521 1.379-.483 0-.833-.118-1.075-.33-.241-.2-.35-.495-.35-.884 0-.294.145-.577.447-.837h4.406v-.73H23.95c.821-.377 1.352-.66 1.594-.837h1.569v-.73h-.893c.169-.307.265-.649.265-1.026 0-.778-.253-1.355-.76-1.744-.483-.377-1.135-.554-1.968-.554z"/></g></svg>