<?xml version="1.0" encoding="UTF-8"?>
<svg viewBox="0 0 24 24" version="1.1" xmlns="http://www.w3.org/2000/svg" xmlns:xlink="http://www.w3.org/1999/xlink">
    <path d="M7.38461538,0 L16.6153846,0 C20.6937951,0 24,3.30620492 24,7.38461538 L24,16.6153846 C24,20.6937951 20.6937951,24 16.6153846,24 L7.38461538,24 C3.30620492,24 0,20.6937951 0,16.6153846 L0,7.38461538 C0,3.30620492 3.30620492,0 7.38461538,0 Z" id="path-2" fill="#FF6400"></path>
    <path d="M12.0503497,6.64615385 C12.7776224,6.64615385 13.393007,7.00605706 13.627972,7.65489543 L13.627972,7.65489543 L15.9664336,7.65489543 C16.5846154,7.65489543 17.0853147,8.15550778 17.0853147,8.77358226 L17.0853147,8.77358226 L17.0853147,16.6043901 C17.0853147,17.2224646 16.5846154,17.7230769 15.9664336,17.7230769 L15.9664336,17.7230769 L8.13426573,17.7230769 C7.51608392,17.7230769 7.01538462,17.2224646 7.01538462,16.6043901 L7.01538462,16.6043901 L7.01538462,8.77358226 C7.01538462,8.15550778 7.51608392,7.65489543 8.13426573,7.65489543 L8.13426573,7.65489543 L10.4727273,7.65489543 C10.7076923,7.00605706 11.3230769,6.64615385 12.0503497,6.64615385 Z M12.0503497,13.6951049 C11.0433566,13.6951049 9.02937063,14.3104895 9.02937063,15.4293706 L9.02937063,15.4293706 L9.02937063,15.9608392 C9.02937063,16.0998759 9.14208216,16.2125874 9.28111888,16.2125874 L9.28111888,16.2125874 L14.8195804,16.2125874 C14.9586171,16.2125874 15.0713287,16.0998759 15.0713287,15.9608392 L15.0713287,15.9608392 L15.0713287,15.4293706 C15.0713287,14.3104895 13.0573427,13.6951049 12.0503497,13.6951049 Z M12.0503497,10.1706294 C11.2160559,10.1706294 10.5398601,10.8468252 10.5398601,11.6811189 C10.5398601,12.5154126 11.2160559,13.1916084 12.0503497,13.1916084 C12.8846434,13.1916084 13.5608392,12.5154126 13.5608392,11.6811189 C13.5608392,10.8468252 12.8846434,10.1706294 12.0503497,10.1706294 Z M12.0503497,7.65314685 C11.7722762,7.65314685 11.5468531,7.87856992 11.5468531,8.15664336 C11.5468531,8.4347168 11.7722762,8.66013986 12.0503497,8.66013986 C12.3284231,8.66013986 12.5538462,8.4347168 12.5538462,8.15664336 C12.5538462,7.87856992 12.3284231,7.65314685 12.0503497,7.65314685 Z" fill="#FFFFFF"></path>
</svg>