<svg xmlns="http://www.w3.org/2000/svg" xmlns:xlink="http://www.w3.org/1999/xlink" version="1.1" viewBox="0 0 512 512">
 <g>
  <path stroke="null" id="svg_1" fill-rule="evenodd" fill="#ED484A" d="m492.995843,495.158125c30.779673,8.833321 -8.816202,-100.915556 -8.816202,-100.915556c17.632404,-52.726024 35.09362,-232.730618 24.137563,-287.596497c-10.956057,-54.882998 -52.041271,-52.982807 -127.535351,-67.996029c-76.846469,-15.406955 -270.118162,-24.223157 -312.059318,-21.963471c-41.684373,2.174093 -72.327095,30.642722 -68.047385,87.819645c4.399542,57.005734 71.265727,269.450527 104.424918,322.176552c33.039359,52.726024 81.879407,43.516089 111.015672,39.989608c39.95537,-4.930226 190.361491,-39.989608 190.361491,-39.989608c-13.455408,-17.290027 55.73894,59.642035 86.501494,68.475356l0.017119,0zm-201.7284,-331.763102l26.773864,-56.903021l80.116167,0l-87.579981,166.77173l0,98.262136l-91.928166,0l0,-98.262136l-48.95988,-93.229198l-38.739933,-73.542533l80.116167,0l53.479253,113.412309l26.722508,-56.509288z"/>
 </g>
</svg>